# xmcd CD database file
#
# Track frame offsets:
#	182
#	22730
#	48952
#	70187
#	108952
#	129357
#	165385
#	193115
#
# Disc length: 3217 seconds
#
# Revision: 0
# Processed by: cddbd v1.5.1PL2 Copyright (c) Steve Scherf et al.
# Submitted via: CDex 1.51
#
DISCID=5b0c8f08
DTITLE=Duke Ellington - The Art of Jazz
DYEAR=1994
DGENRE=Jazz
TTITLE0=I Got It Bad And That Ain't Good /w  Ben Webster
TTITLE1=Sophisticated Lady w/ Johnny Griffin
TTITLE2=Hi Ya Sue w/ Paul Gonsalves and Ray Nance
TTITLE3=Mood Indigo Donn't Get Around Much Anymore Take The A Train - Dollar Brand
TTITLE4=Blue Light - Ben Webster
TTITLE5=C Jam Blues - Illinois Jacquet
TTITLE6=Satin Doll - Stephanie Grappelli
TTITLE7=It Don't Mean A Thing If It Ain't Got That Swing - Paul Gonsalves /w Earl Hines
EXTD=YEAR: 1994
EXTT0=
EXTT1=
EXTT2=
EXTT3=
EXTT4=
EXTT5=
EXTT6=
EXTT7=
PLAYORDER=
